HIERARCHY
ROOT hip
{
	OFFSET 0.000000 0.000000 0.000000 
	CHANNELS 6 Xposition Yposition Zposition Xrotation Zrotation Yrotation
	JOINT abdomen
	{
		OFFSET 0.000000 3.402643 0.000000 
		CHANNELS 3 Xrotation Zrotation Yrotation
		JOINT chest
		{
			OFFSET 0.000000 8.438565 -0.680529 
			CHANNELS 3 Xrotation Zrotation Yrotation
			JOINT neck
			{
				OFFSET 0.000000 10.207942 -0.272212 
				CHANNELS 3 Xrotation Zrotation Yrotation
				JOINT head
				{
					OFFSET 0.000000 3.130431 0.000000 
					CHANNELS 3 Xrotation Zrotation Yrotation
					End Site
					{
						OFFSET 0.000000 3.130435 0.000000 
					}
				}
			}
			JOINT lCollar
			{
				OFFSET 3.470700 6.669187 -0.816635 
				CHANNELS 3 Yrotation Zrotation Xrotation
				JOINT lShldr
				{
					OFFSET 3.198488 0.000000 0.000000 
					CHANNELS 3 Zrotation Yrotation Xrotation
					JOINT lForeArm
					{
						OFFSET 10.139888 0.000000 0.000000 
						CHANNELS 3 Yrotation Zrotation Xrotation
						JOINT lHand
						{
							OFFSET 8.370511 0.000000 0.000000 
							CHANNELS 3 Zrotation Yrotation Xrotation
							End Site
							{
								OFFSET 4.083176 0.000000 0.000000 
							}
						}
					}
				}
			}
			JOINT rCollar
			{
				OFFSET -3.470700 6.669187 -0.816635 
				CHANNELS 3 Yrotation Zrotation Xrotation
				JOINT rShldr
				{
					OFFSET -3.198488 0.000000 0.000000 
					CHANNELS 3 Zrotation Yrotation Xrotation
					JOINT rForeArm
					{
						OFFSET -10.139888 0.000000 0.000000 
						CHANNELS 3 Yrotation Zrotation Xrotation
						JOINT rHand
						{
							OFFSET -8.370511 0.000000 0.000000 
							CHANNELS 3 Zrotation Yrotation Xrotation
							End Site
							{
								OFFSET -4.083176 0.000000 0.000000 
							}
						}
					}
				}
			}
		}
	}
	JOINT lThigh
	{
		OFFSET 5.308129 -1.633274 1.361059 
		CHANNELS 3 Xrotation Zrotation Yrotation
		JOINT lShin
		{
			OFFSET -2.041588 -20.007561 0.000000 
			CHANNELS 3 Xrotation Zrotation Yrotation
			JOINT lFoot
			{
				OFFSET 0.000000 -19.190928 -1.224953 
				CHANNELS 3 Xrotation Yrotation Zrotation
				End Site
				{
					OFFSET 0.000000 -2.449906 4.627600 
				}
			}
		}
	}
	JOINT rThigh
	{
		OFFSET -5.308129 -1.633274 1.361059 
		CHANNELS 3 Xrotation Zrotation Yrotation
		JOINT rShin
		{
			OFFSET 2.041588 -20.007561 0.000000 
			CHANNELS 3 Xrotation Zrotation Yrotation
			JOINT rFoot
			{
				OFFSET 0.000000 -19.190928 -1.224953 
				CHANNELS 3 Xrotation Yrotation Zrotation
				End Site
				{
					OFFSET 0.000000 -2.449906 4.627600 
				}
			}
		}
	}
}
MOTION
Frames: 6
Frame Time: 0.016667
-1.401250 46.424908 16.178095 -8.037510 -0.570512 3.107900 -17.346600 3.027840 -1.894930 17.195499 1.862030 -0.578031 14.144600 -5.874310 -1.655500 10.720100 3.118900 -0.559523 2.000000 -2.000000 0.000000 110.411003 -120.614998 25.270100 62.207600 -0.278597 0.120998 0.050024 -0.041236 -151.813995 -2.000000 2.000000 0.000000 -107.509003 132.466995 14.897400 -65.576698 0.271378 0.124488 -0.061992 0.048768 -154.617004 -5.211954 0.462118 3.932989 36.137897 2.968016 2.509685 -23.707695 5.334253 2.315386 5.586864 -1.085914 -4.257767 20.455404 -4.326600 -1.301179 -22.380873 -5.939035 -2.747674 
-1.397498 46.423111 16.185736 -8.027740 -0.570526 3.117570 -17.336201 2.990730 -1.882740 17.234600 1.823110 -0.574500 14.135700 -5.866270 -1.672160 10.729900 3.118820 -0.568758 2.000000 -2.000000 0.000000 109.944000 -120.830002 25.386900 62.305199 -0.278390 0.121106 0.050302 -0.042266 -152.195007 -2.000000 2.000000 0.000000 -108.209999 131.880997 14.996500 -65.264198 0.272056 0.124178 -0.062067 0.049003 -154.705002 -5.216244 0.440330 3.913226 36.137524 2.967724 2.499886 -23.705547 5.343408 2.321343 5.537853 -1.080676 -4.260119 20.518137 -4.359821 -1.297240 -22.414551 -5.931385 -2.734489 
-1.393758 46.421299 16.193485 -8.017970 -0.560870 3.125870 -17.326000 2.966360 -1.864320 17.264000 1.784160 -0.561561 14.137000 -5.849330 -1.696590 10.729900 3.118820 -0.578523 2.000000 -2.000000 0.000000 109.476997 -121.035004 25.493900 62.402901 -0.278184 0.121214 0.050586 -0.043294 -152.576004 -2.000000 2.000000 0.000000 -108.911003 131.294998 15.085800 -64.951698 0.272733 0.123864 -0.062151 0.049263 -154.802994 -5.259803 0.423369 3.886473 36.215885 2.967567 2.498758 -23.741318 5.370000 2.318193 5.565319 -1.093173 -4.269604 20.452774 -4.335515 -1.283343 -22.410654 -5.892971 -2.754717 
-1.392646 46.423367 16.208202 -7.988770 -0.628606 3.105790 -17.315399 2.908130 -1.825150 17.313101 1.667250 -0.543651 14.117500 -5.785240 -1.708360 10.720200 3.128600 -0.577917 2.000000 -2.000000 0.000000 109.040001 -121.308998 25.581200 62.520000 -0.277936 0.121344 0.050908 -0.044425 -152.996002 -2.000000 2.000000 0.000000 -109.211998 130.776993 14.989300 -64.853996 0.272944 0.123765 -0.061794 0.048143 -154.382996 -5.294422 0.477723 3.860367 36.244881 2.978738 2.511557 -23.769735 5.377048 2.324568 5.571582 -1.026584 -4.251848 20.386013 -4.324182 -1.300940 -22.388729 -5.902999 -2.748458 
-1.391557 46.425301 16.222807 -7.969330 -0.686664 3.094170 -17.295099 2.850060 -1.785470 17.362101 1.560070 -0.526483 14.098600 -5.721810 -1.729890 10.710400 3.128680 -0.588215 2.000000 -2.000000 0.000000 108.601997 -121.582001 25.668501 62.646999 -0.277667 0.121483 0.051237 -0.045553 -153.416000 -2.000000 2.000000 0.000000 -109.522003 130.268997 14.892900 -64.756401 0.273155 0.123666 -0.061445 0.047020 -153.962997 -5.308299 0.536694 3.833060 36.254871 2.975856 2.510519 -23.831741 5.411827 2.350430 5.588302 -0.958834 -4.252960 20.323114 -4.336828 -1.293545 -22.362902 -5.930904 -2.741228 
-1.394904 46.426064 16.232918 -7.969340 -0.696335 3.105290 -17.274599 2.782650 -1.742460 17.411100 1.472390 -0.510568 14.090200 -5.612900 -1.769190 10.700800 3.148160 -0.606010 2.000000 -2.000000 0.000000 108.223000 -121.767998 25.728100 62.705601 -0.277543 0.121547 0.051370 -0.045999 -153.582001 -2.000000 2.000000 0.000000 -109.336998 130.580994 14.579600 -65.039597 0.272543 0.123953 -0.060635 0.044293 -152.947006 -5.260015 0.540982 3.810445 36.177425 2.962942 2.507570 -23.761900 5.410282 2.345234 5.621342 -0.947919 -4.259479 20.302238 -4.339221 -1.283569 -22.362749 -5.931450 -2.741546 
